<?xml version="1.0" encoding="UTF-8" standalone="no"?>
<!-- Created with Inkscape (http://www.inkscape.org/) -->

<svg
   xmlns:osb="http://www.openswatchbook.org/uri/2009/osb"
   xmlns:dc="http://purl.org/dc/elements/1.1/"
   xmlns:cc="http://creativecommons.org/ns#"
   xmlns:rdf="http://www.w3.org/1999/02/22-rdf-syntax-ns#"
   xmlns:svg="http://www.w3.org/2000/svg"
   xmlns="http://www.w3.org/2000/svg"
   xmlns:xlink="http://www.w3.org/1999/xlink"
   xmlns:sodipodi="http://sodipodi.sourceforge.net/DTD/sodipodi-0.dtd"
   xmlns:inkscape="http://www.inkscape.org/namespaces/inkscape"
   width="98"
   height="32.000008"
   id="svg7229"
   sodipodi:version="0.32"
   inkscape:version="0.92.3 (2405546, 2018-03-11)"
   version="1.0"
   sodipodi:docname="audio.svg"
   inkscape:output_extension="org.inkscape.output.svgz.inkscape"
   viewBox="0 0 98 32.000008">
  <defs
     id="defs7231">
    <linearGradient
       id="lineslo"
       osb:paint="solid">
      <stop
         style="stop-color:#cccccc;stop-opacity:0.44090909;"
         offset="0"
         id="stop864" />
    </linearGradient>
    <linearGradient
       id="lineshi"
       osb:paint="solid">
      <stop
         style="stop-color:#cccccc;stop-opacity:1;"
         offset="0"
         id="stop854" />
    </linearGradient>
    <linearGradient
       id="speaker"
       osb:paint="solid">
      <stop
         style="stop-color:#cccccc;stop-opacity:1;"
         offset="0"
         id="stop842" />
    </linearGradient>
    <style
       id="current-color-scheme"
       type="text/css">
      .ColorScheme-Text {
        color:#31363b;
      }
      .ColorScheme-Background{
        color:#eff0f1;
      }
      .ColorScheme-ViewText {
        color:#31363b;
      }
      .ColorScheme-ViewBackground{
        color:#ffffff;
      }
      .ColorScheme-ViewHover {
        color:#000000;
      }
      .ColorScheme-ViewFocus{
        color:#5a5a5a;
      }
      .ColorScheme-ButtonText {
        color:#31363b;
      }
      .ColorScheme-ButtonBackground{
        color:#E9E8E8;
      }
      .ColorScheme-ButtonHover {
        color:#1489ff;
      }
      .ColorScheme-ButtonFocus{
        color:#2B74C7;
      }
</style>
    <style
       type="text/css"
       id="style5">
      .ColorScheme-Text {
        color:#31363b;
      }
      .ColorScheme-Background {
        color:#eff0f1;
      }
      .ColorScheme-Highlight {
        color:#3daee9;
      }
      .ColorScheme-ViewText {
        color:#31363b;
      }
      .ColorScheme-ViewBackground {
        color:#fcfcfc;
      }
      .ColorScheme-ViewHover {
        color:#93cee9;
      }
      .ColorScheme-ViewFocus{
        color:#3daee9;
      }
      .ColorScheme-ButtonText {
        color:#31363b;
      }
      .ColorScheme-ButtonBackground {
        color:#eff0f1;
      }
      .ColorScheme-ButtonHover {
        color:#93cee9;
      }
      .ColorScheme-ButtonFocus{
        color:#3daee9;
      }
      </style>
    <linearGradient
       inkscape:collect="always"
       xlink:href="#speaker"
       id="linearGradient846"
       x1="3"
       y1="11"
       x2="12"
       y2="11"
       gradientUnits="userSpaceOnUse" />
    <linearGradient
       inkscape:collect="always"
       xlink:href="#speaker"
       id="linearGradient848"
       x1="3"
       y1="11"
       x2="12"
       y2="11"
       gradientUnits="userSpaceOnUse" />
    <linearGradient
       inkscape:collect="always"
       xlink:href="#speaker"
       id="linearGradient850"
       x1="3"
       y1="11"
       x2="12"
       y2="11"
       gradientUnits="userSpaceOnUse" />
    <linearGradient
       inkscape:collect="always"
       xlink:href="#speaker"
       id="linearGradient852"
       x1="3"
       y1="11"
       x2="12"
       y2="11"
       gradientUnits="userSpaceOnUse" />
    <linearGradient
       inkscape:collect="always"
       xlink:href="#lineshi"
       id="linearGradient858"
       x1="13.785156"
       y1="11.00293"
       x2="16"
       y2="11.00293"
       gradientUnits="userSpaceOnUse" />
    <linearGradient
       inkscape:collect="always"
       xlink:href="#lineshi"
       id="linearGradient860"
       x1="13.619141"
       y1="10.995117"
       x2="19"
       y2="10.995117"
       gradientUnits="userSpaceOnUse" />
    <linearGradient
       inkscape:collect="always"
       xlink:href="#lineshi"
       id="linearGradient862"
       x1="13.785156"
       y1="11.00293"
       x2="16"
       y2="11.00293"
       gradientUnits="userSpaceOnUse" />
    <linearGradient
       inkscape:collect="always"
       xlink:href="#lineslo"
       id="linearGradient868"
       x1="13.619141"
       y1="10.995117"
       x2="19"
       y2="10.995117"
       gradientUnits="userSpaceOnUse" />
    <linearGradient
       inkscape:collect="always"
       xlink:href="#lineslo"
       id="linearGradient870"
       x1="13.785156"
       y1="11.00293"
       x2="16"
       y2="11.00293"
       gradientUnits="userSpaceOnUse" />
    <linearGradient
       inkscape:collect="always"
       xlink:href="#lineslo"
       id="linearGradient872"
       x1="13.619141"
       y1="10.995117"
       x2="19"
       y2="10.995117"
       gradientUnits="userSpaceOnUse" />
  </defs>
  <sodipodi:namedview
     id="base"
     pagecolor="#ffffff"
     bordercolor="#666666"
     borderopacity="1.0"
     inkscape:pageopacity="0"
     inkscape:pageshadow="2"
     inkscape:zoom="8.340909"
     inkscape:cx="29.218868"
     inkscape:cy="18.168372"
     inkscape:document-units="px"
     inkscape:current-layer="layer1"
     showgrid="false"
     inkscape:window-width="1920"
     inkscape:window-height="938"
     inkscape:window-x="0"
     inkscape:window-y="0"
     showguides="true"
     inkscape:guide-bbox="true"
     gridtolerance="10000"
     inkscape:window-maximized="1"
     inkscape:snap-bbox="true"
     inkscape:showpageshadow="false"
     borderlayer="false"
     inkscape:pagecheckerboard="true"
     fit-margin-top="5"
     fit-margin-left="5"
     fit-margin-right="5"
     fit-margin-bottom="5">
    <inkscape:grid
       type="xygrid"
       id="grid3780"
       empspacing="5"
       visible="true"
       enabled="true"
       snapvisiblegridlinesonly="true"
       originx="4.9999992"
       originy="5.0000012" />
  </sodipodi:namedview>
  <metadata
     id="metadata7234">
    <rdf:RDF>
      <cc:Work
         rdf:about="">
        <dc:format>image/svg+xml</dc:format>
        <dc:type
           rdf:resource="http://purl.org/dc/dcmitype/StillImage" />
        <dc:title />
      </cc:Work>
    </rdf:RDF>
  </metadata>
  <g
     inkscape:label="Camada 1"
     inkscape:groupmode="layer"
     id="layer1"
     transform="translate(-209.53572,-399.50504)">
    <g
       id="audio-volume-high">
      <rect
         y="404.50504"
         x="214.53572"
         height="22.000006"
         width="22"
         id="rect4208"
         style="opacity:1;fill:none;fill-opacity:0.433213;stroke:none;stroke-width:0.1;stroke-linecap:square;stroke-linejoin:miter;stroke-miterlimit:4;stroke-dasharray:none;stroke-dashoffset:0;stroke-opacity:1" />
      <path
         style="color:#31363b;opacity:1;fill:url(#linearGradient850);fill-opacity:1;stroke:none"
         d="M 10.988281,3 6,7.9902344 V 8 v 1 4 1 0.0098 L 10.988281,19 H 12 V 18.597656 3.4023438 3 Z M 3,8 v 1 4 1 H 5 V 13 9 8 Z"
         transform="translate(214.53572,404.50504)"
         id="path4226"
         inkscape:connector-curvature="0"
         class="ColorScheme-Text" />
      <path
         style="color:#31363b;opacity:1;fill:url(#linearGradient862);fill-opacity:1;stroke:none"
         d="M 14.324219,7.28125 13.785156,8.1425781 A 4,4 0 0 1 15,11 4,4 0 0 1 13.789062,13.861328 l 0.539063,0.863281 A 5,5 0 0 0 16,11 5,5 0 0 0 14.324219,7.28125 Z"
         transform="translate(214.53572,404.50504)"
         id="path4183"
         inkscape:connector-curvature="0"
         class="ColorScheme-Text" />
      <path
         style="color:#31363b;opacity:1;fill:url(#linearGradient860);fill-opacity:1;stroke:none"
         d="m 13.865234,3.5371094 -0.24414,0.9765625 A 7,7 0 0 1 18,11 7,7 0 0 1 13.619141,17.478516 l 0.24414,0.974609 A 8,8 0 0 0 19,11 8,8 0 0 0 13.865234,3.5371094 Z"
         transform="translate(214.53572,404.50504)"
         id="path4188"
         inkscape:connector-curvature="0"
         class="ColorScheme-Text" />
    </g>
    <g
       id="audio-volume-medium"
       transform="translate(22)">
      <rect
         style="opacity:1;fill:none;fill-opacity:0.433213;stroke:none;stroke-width:0.1;stroke-linecap:square;stroke-linejoin:miter;stroke-miterlimit:4;stroke-dasharray:none;stroke-dashoffset:0;stroke-opacity:1"
         id="rect4167"
         width="22"
         height="22.000006"
         x="214.53572"
         y="404.50504" />
      <path
         id="path4169"
         transform="translate(214.53572,404.50504)"
         d="M 10.988281,3 6,7.9902344 V 8 v 1 4 1 0.0098 L 10.988281,19 H 12 V 18.597656 3.4023438 3 Z M 3,8 v 1 4 1 H 5 V 13 9 8 Z"
         style="color:#31363b;opacity:1;fill:url(#linearGradient852);fill-opacity:1;stroke:none"
         inkscape:connector-curvature="0"
         class="ColorScheme-Text" />
      <path
         id="path4171"
         transform="translate(214.53572,404.50504)"
         d="M 14.324219,7.28125 13.785156,8.1425781 A 4,4 0 0 1 15,11 4,4 0 0 1 13.789062,13.861328 l 0.539063,0.863281 A 5,5 0 0 0 16,11 5,5 0 0 0 14.324219,7.28125 Z"
         style="color:#31363b;opacity:1;fill:url(#linearGradient858);fill-opacity:1;stroke:none"
         inkscape:connector-curvature="0"
         class="ColorScheme-Text" />
      <path
         id="path4173"
         transform="translate(214.53572,404.50504)"
         d="m 13.865234,3.5371094 -0.24414,0.9765625 A 7,7 0 0 1 18,11 7,7 0 0 1 13.619141,17.478516 l 0.24414,0.974609 A 8,8 0 0 0 19,11 8,8 0 0 0 13.865234,3.5371094 Z"
         style="color:#31363b;opacity:1;fill:url(#linearGradient872);fill-opacity:1;stroke:none"
         inkscape:connector-curvature="0"
         class="ColorScheme-Text" />
    </g>
    <g
       transform="translate(44)"
       id="audio-volume-low">
      <rect
         y="404.50504"
         x="214.53572"
         height="22.000006"
         width="22"
         id="rect4177"
         style="opacity:1;fill:none;fill-opacity:0.433213;stroke:none;stroke-width:0.1;stroke-linecap:square;stroke-linejoin:miter;stroke-miterlimit:4;stroke-dasharray:none;stroke-dashoffset:0;stroke-opacity:1" />
      <path
         inkscape:connector-curvature="0"
         style="color:#31363b;opacity:1;fill:url(#linearGradient848);fill-opacity:1;stroke:none"
         d="M 10.988281,3 6,7.9902344 V 8 v 1 4 1 0.0098 L 10.988281,19 H 12 V 18.597656 3.4023438 3 Z M 3,8 v 1 4 1 H 5 V 13 9 8 Z"
         transform="translate(214.53572,404.50504)"
         id="path4179"
         class="ColorScheme-Text" />
      <path
         inkscape:connector-curvature="0"
         style="color:#31363b;opacity:1;fill:url(#linearGradient870);fill-opacity:1;stroke:none"
         d="M 14.324219,7.28125 13.785156,8.1425781 A 4,4 0 0 1 15,11 4,4 0 0 1 13.789062,13.861328 l 0.539063,0.863281 A 5,5 0 0 0 16,11 5,5 0 0 0 14.324219,7.28125 Z"
         transform="translate(214.53572,404.50504)"
         id="path4181"
         class="ColorScheme-Text" />
      <path
         inkscape:connector-curvature="0"
         style="color:#31363b;opacity:1;fill:url(#linearGradient868);fill-opacity:1;stroke:none"
         d="m 13.865234,3.5371094 -0.24414,0.9765625 A 7,7 0 0 1 18,11 7,7 0 0 1 13.619141,17.478516 l 0.24414,0.974609 A 8,8 0 0 0 19,11 8,8 0 0 0 13.865234,3.5371094 Z"
         transform="translate(214.53572,404.50504)"
         id="path4184"
         class="ColorScheme-Text" />
    </g>
    <g
       id="audio-volume-muted"
       transform="translate(66)">
      <rect
         style="opacity:1;fill:none;fill-opacity:0.433213;stroke:none;stroke-width:0.1;stroke-linecap:square;stroke-linejoin:miter;stroke-miterlimit:4;stroke-dasharray:none;stroke-dashoffset:0;stroke-opacity:1"
         id="rect4188"
         width="22"
         height="22.000006"
         x="214.53572"
         y="404.50504" />
      <path
         id="path4190"
         transform="translate(214.53572,404.50504)"
         d="M 10.988281,3 6,7.9902344 V 8 v 1 4 1 0.0098 L 10.988281,19 H 12 V 18.597656 3.4023438 3 Z M 3,8 v 1 4 1 H 5 V 13 9 8 Z"
         inkscape:connector-curvature="0"
         class="ColorScheme-Text"
         style="color:#31363b;opacity:1;fill:url(#linearGradient846);fill-opacity:1;stroke:none" />
      <rect
         style="color:#4d4d4d;clip-rule:nonzero;display:inline;overflow:visible;visibility:visible;opacity:1;isolation:auto;mix-blend-mode:normal;color-interpolation:sRGB;color-interpolation-filters:linearRGB;solid-color:#000000;solid-opacity:1;fill:#cc3529;fill-opacity:1;fill-rule:nonzero;stroke:none;stroke-width:1;stroke-linecap:square;stroke-linejoin:miter;stroke-miterlimit:4;stroke-dasharray:none;stroke-dashoffset:0;stroke-opacity:1;color-rendering:auto;image-rendering:auto;shape-rendering:auto;text-rendering:auto;enable-background:accumulate"
         id="rect4165"
         width="6"
         height="2"
         x="227.53572"
         y="414.50504" />
    </g>
  </g>
</svg>
